<?xml version="1.0" encoding="utf-8" ?>
<svg baseProfile="full" height="0.6153" version="1.1" viewBox="-0.3519 -0.3076 0.7038 0.6153" width="0.7038" xmlns="http://www.w3.org/2000/svg" xmlns:ev="http://www.w3.org/2001/xml-events" xmlns:xlink="http://www.w3.org/1999/xlink"><defs /><path d="M -0.10509,0.27579 L -0.07888,0.28268 L -0.04660,0.28655 L -0.00860,0.28763 L 0.03739,0.28690 L 0.07503,0.28371 L 0.10296,0.27841 L 0.10674,0.27752 L 0.13266,0.27034 L 0.15834,0.26052 L 0.18415,0.24720 L 0.19036,0.24380 L 0.21491,0.22795 L 0.23729,0.21023 L 0.25496,0.19325 L 0.25680,0.19133 L 0.27274,0.17225 L 0.28901,0.14778 L 0.30036,0.12507 L 0.31543,0.08726 L 0.32575,0.05600 L 0.33130,0.03002 L 0.33190,0.00652 L 0.32734,-0.01731 L 0.32618,-0.02050 L 0.31641,-0.04638 L 0.29790,-0.08561 L 0.27739,-0.12761 L 0.26333,-0.15599 L 0.24992,-0.17977 L 0.23397,-0.20461 L 0.21597,-0.22832 L 0.19638,-0.24875 L 0.17967,-0.26308 L 0.16992,-0.26988 L 0.15144,-0.27413 L 0.12958,-0.27682 L 0.09287,-0.27849 L -0.10825,-0.28704 L -0.13176,-0.28763 L -0.13951,-0.28645 L -0.15974,-0.28289 L -0.18727,-0.27356 L -0.20528,-0.26418 L -0.22715,-0.25015 L -0.25817,-0.22848 L -0.28428,-0.20789 L -0.30518,-0.18828 L -0.31525,-0.17404 L -0.31964,-0.15644 L -0.32353,-0.12673 L -0.32711,-0.08986 L -0.33020,-0.04837 L -0.33183,-0.01098 L -0.33190,-0.00921 L -0.33109,0.01338 L -0.33071,0.01750 L -0.32498,0.04234 L -0.31301,0.07479 L -0.31099,0.07999 L -0.29918,0.10449 L -0.28787,0.12109 L -0.28490,0.12488 L -0.27016,0.14085 L -0.24641,0.16493 L -0.22185,0.18888 L -0.19847,0.21091 L -0.19361,0.21544 L -0.16713,0.23848 L -0.14621,0.25501 L -0.12691,0.26650 L -0.10645,0.27522 Z" fill="black" stroke="none" /></svg>